<svg width="200" height="42" viewBox="0 0 200 42" fill="none" xmlns="http://www.w3.org/2000/svg">
<g clip-path="url(#clip0_1_1743)">
<path fill-rule="evenodd" clip-rule="evenodd" d="M39.2277 20.9995C39.2277 32.2618 30.6498 41.3928 20.0698 41.3928C9.48984 41.3928 0.911987 32.2618 0.911987 20.9995C0.911987 9.73722 9.48984 0.606201 20.0698 0.606201C30.6521 0.606201 39.2277 9.73722 39.2277 20.9995ZM10.3637 21.6848L10.4463 21.5464L15.43 13.2473C15.5029 13.1258 15.6741 13.1383 15.7292 13.2703C16.5618 15.2566 17.2802 17.7269 16.9437 19.2648C16.8 19.8975 16.4063 20.7544 15.9634 21.5464C15.9064 21.6617 15.8434 21.7748 15.7765 21.8838C15.745 21.9341 15.6918 21.9634 15.6347 21.9634H10.5093C10.3715 21.9634 10.2908 21.8042 10.3637 21.6848ZM32.5778 24.5405V23.2269C32.5778 23.1053 32.4676 23.0173 32.3593 23.0509L26.5312 24.8444C26.4997 24.8527 26.4721 24.8716 26.4505 24.8967C25.8263 25.6307 25.2958 26.1232 25.1553 26.2537L25.1455 26.2628C24.7834 26.5897 24.3346 26.7678 23.8622 26.7678H21.7522V24.4777H23.4292C23.4725 24.4777 23.5138 24.4609 23.5453 24.4316L23.7618 24.22C23.8543 24.1299 23.9645 24.0209 24.0964 23.8805C24.1076 23.8686 24.119 23.8565 24.1305 23.8443C24.1998 23.7708 24.2738 23.6923 24.3464 23.6061C24.433 23.516 24.5176 23.4154 24.5963 23.3169C24.7282 23.1661 24.8542 23.0089 24.9861 22.8434C25.0806 22.7345 25.1672 22.6109 25.2518 22.4872C25.3463 22.3699 25.4388 22.2379 25.5254 22.1122C25.5576 22.0618 25.5919 22.0108 25.627 21.9587C25.6604 21.9091 25.6945 21.8584 25.7281 21.8063C25.7911 21.7057 25.8541 21.5989 25.9072 21.4983C26.0726 21.2259 26.2123 20.9346 26.3304 20.6434C26.3846 20.5187 26.428 20.3874 26.4701 20.2597C26.4754 20.2437 26.4806 20.2277 26.4859 20.2118C26.5332 20.063 26.5725 19.9227 26.602 19.7739C26.6729 19.424 26.6886 19.0762 26.6571 18.7284C26.6493 18.6194 26.6414 18.5126 26.6178 18.412V18.3953C26.6099 18.324 26.5942 18.2444 26.5725 18.1711C26.5017 17.8316 26.3914 17.4922 26.2517 17.1591C26.2044 17.0354 26.1493 16.9097 26.0962 16.7945C25.9702 16.5452 25.8383 16.2958 25.6888 16.0549C25.6587 16.004 25.6256 15.9524 25.5925 15.901C25.567 15.8613 25.5415 15.8217 25.5175 15.7825C25.4228 15.627 25.3163 15.4771 25.2129 15.3316C25.1896 15.2987 25.1664 15.266 25.1435 15.2336C25.0825 15.1483 25.0157 15.063 24.9485 14.9772C24.9117 14.9302 24.8747 14.8829 24.8385 14.8355C24.7361 14.7035 24.6357 14.5778 24.5334 14.4541C24.1673 14.0141 23.7835 13.6161 23.441 13.2766C23.378 13.2096 23.3091 13.1425 23.2382 13.0776C22.9725 12.8199 22.7304 12.5957 22.5277 12.4218C22.4668 12.3719 22.4121 12.3228 22.3613 12.277C22.3267 12.2459 22.2938 12.2163 22.262 12.1892C22.2005 12.1404 22.1472 12.0972 22.1024 12.0609C22.074 12.0379 22.0491 12.0177 22.0277 12.0006C22.012 11.9881 21.9943 11.9797 21.9766 11.9734L21.7522 11.9064V9.92846C21.7522 9.60579 21.6301 9.31666 21.4353 9.10501C21.2404 8.89341 20.9688 8.76351 20.6696 8.76351C20.0713 8.76351 19.5871 9.28521 19.5871 9.92846V11.261L19.4749 11.2275L19.1698 11.1353L18.8922 11.0536C18.8914 11.0536 18.8906 11.0532 18.8897 11.0528C18.8883 11.0522 18.8867 11.0515 18.8844 11.0515H18.8785L16.7724 10.4439C16.6799 10.4166 16.6012 10.5235 16.6484 10.6136L16.985 11.2757C17.0041 11.3266 17.0283 11.3775 17.0532 11.4297C17.0693 11.4636 17.0856 11.498 17.1011 11.5334C17.1562 11.6507 17.2113 11.7743 17.2645 11.898C17.3117 12.0069 17.359 12.1138 17.4141 12.2311C17.4372 12.2863 17.4608 12.3421 17.4848 12.3987C17.5728 12.6067 17.6653 12.8253 17.7565 13.0608C17.8353 13.2599 17.914 13.4589 17.9829 13.6663C18.1719 14.188 18.351 14.7454 18.5065 15.3174C18.5452 15.4454 18.5761 15.5693 18.6075 15.6949C18.6208 15.7481 18.6341 15.8016 18.6482 15.8559L18.6698 15.9564C18.7328 16.2225 18.7879 16.4865 18.8273 16.7526C18.8588 16.9349 18.8883 17.1088 18.904 17.2848C18.9277 17.4838 18.9513 17.6829 18.9592 17.8819C18.9749 18.0642 18.9828 18.2549 18.9828 18.4372C18.9828 18.9023 18.9434 19.3507 18.8509 19.7739C18.8451 19.7966 18.8393 19.8197 18.8335 19.8429C18.8076 19.9459 18.7807 20.0526 18.7486 20.1553C18.7195 20.2651 18.6818 20.375 18.6427 20.4891C18.6288 20.5295 18.6148 20.5704 18.6009 20.612C18.5983 20.6194 18.5957 20.6268 18.5931 20.6343C18.5642 20.7173 18.5347 20.8017 18.4986 20.8844C18.3037 21.3831 18.0616 21.8796 17.8117 22.3448C17.4456 23.0341 17.0775 23.6396 16.8196 24.0293C16.8039 24.0545 16.7885 24.0785 16.7737 24.1015C16.7552 24.1303 16.7376 24.1576 16.7212 24.1844C16.6405 24.3059 16.7232 24.4777 16.8629 24.4777H19.5871V26.7678H16.8314C16.0914 26.7678 15.4064 26.3215 15.0757 25.607C14.9045 25.2487 14.8376 24.8548 14.877 24.4693C14.8868 24.3541 14.8061 24.2451 14.6959 24.2451H9.12952C9.03504 24.2451 8.95829 24.3268 8.95829 24.4274V24.5489C8.95829 28.3287 11.8261 31.3919 15.3651 31.3919H25.3502C27.2219 31.3919 28.2847 29.5763 29.3293 27.7918C29.6205 27.2943 29.9103 26.7993 30.2158 26.3466C30.765 25.5337 32.0857 24.8883 32.4715 24.7123C32.5345 24.683 32.5778 24.616 32.5778 24.5405Z" fill="white"/>
</g>
<path d="M63.8357 32.7235C61.7237 32.7235 59.7823 32.2328 58.0117 31.2515C56.2623 30.2702 54.865 28.9048 53.8197 27.1555C52.7957 25.3848 52.2837 23.4008 52.2837 21.2035C52.2837 19.0062 52.7957 17.0328 53.8197 15.2835C54.865 13.5342 56.2623 12.1688 58.0117 11.1875C59.7823 10.2062 61.7237 9.71551 63.8357 9.71551C65.9477 9.71551 67.8783 10.2062 69.6277 11.1875C71.3983 12.1688 72.785 13.5342 73.7877 15.2835C74.8117 17.0328 75.3237 19.0062 75.3237 21.2035C75.3237 23.4008 74.8117 25.3848 73.7877 27.1555C72.7637 28.9048 71.377 30.2702 69.6277 31.2515C67.8783 32.2328 65.9477 32.7235 63.8357 32.7235ZM63.8357 27.7315C65.6277 27.7315 67.057 27.1342 68.1237 25.9395C69.2117 24.7448 69.7557 23.1662 69.7557 21.2035C69.7557 19.2195 69.2117 17.6408 68.1237 16.4675C67.057 15.2728 65.6277 14.6755 63.8357 14.6755C62.0223 14.6755 60.5717 15.2622 59.4837 16.4355C58.417 17.6088 57.8837 19.1982 57.8837 21.2035C57.8837 23.1875 58.417 24.7768 59.4837 25.9715C60.5717 27.1448 62.0223 27.7315 63.8357 27.7315ZM82.8799 17.1715C83.4132 16.3395 84.1492 15.6675 85.0879 15.1555C86.0266 14.6435 87.1252 14.3875 88.3839 14.3875C89.8559 14.3875 91.1892 14.7608 92.3839 15.5075C93.5786 16.2542 94.5172 17.3208 95.1999 18.7075C95.9039 20.0942 96.2559 21.7048 96.2559 23.5395C96.2559 25.3742 95.9039 26.9955 95.1999 28.4035C94.5172 29.7902 93.5786 30.8675 92.3839 31.6355C91.1892 32.3822 89.8559 32.7555 88.3839 32.7555C87.1466 32.7555 86.0479 32.4995 85.0879 31.9875C84.1492 31.4755 83.4132 30.8142 82.8799 30.0035V41.0115H77.4079V14.6435H82.8799V17.1715ZM90.6879 23.5395C90.6879 22.1742 90.3039 21.1075 89.5359 20.3395C88.7892 19.5502 87.8612 19.1555 86.7519 19.1555C85.6639 19.1555 84.7359 19.5502 83.9679 20.3395C83.2212 21.1288 82.8479 22.2062 82.8479 23.5715C82.8479 24.9368 83.2212 26.0142 83.9679 26.8035C84.7359 27.5928 85.6639 27.9875 86.7519 27.9875C87.8399 27.9875 88.7679 27.5928 89.5359 26.8035C90.3039 25.9928 90.6879 24.9048 90.6879 23.5395ZM114.999 23.2835C114.999 23.7955 114.967 24.3288 114.903 24.8835H102.519C102.604 25.9928 102.956 26.8462 103.575 27.4435C104.215 28.0195 104.993 28.3075 105.911 28.3075C107.276 28.3075 108.225 27.7315 108.759 26.5795H114.583C114.284 27.7528 113.74 28.8088 112.951 29.7475C112.183 30.6862 111.212 31.4222 110.039 31.9555C108.865 32.4888 107.553 32.7555 106.103 32.7555C104.353 32.7555 102.796 32.3822 101.431 31.6355C100.065 30.8888 98.9987 29.8222 98.2307 28.4355C97.4627 27.0488 97.0787 25.4275 97.0787 23.5715C97.0787 21.7155 97.452 20.0942 98.1987 18.7075C98.9667 17.3208 100.033 16.2542 101.399 15.5075C102.764 14.7608 104.332 14.3875 106.103 14.3875C107.831 14.3875 109.367 14.7502 110.711 15.4755C112.055 16.2008 113.1 17.2355 113.847 18.5795C114.615 19.9235 114.999 21.4915 114.999 23.2835ZM109.399 21.8435C109.399 20.9048 109.079 20.1582 108.439 19.6035C107.799 19.0488 106.999 18.7715 106.039 18.7715C105.121 18.7715 104.343 19.0382 103.703 19.5715C103.084 20.1048 102.7 20.8622 102.551 21.8435H109.399ZM127.805 14.4515C129.896 14.4515 131.56 15.1342 132.797 16.4995C134.056 17.8435 134.685 19.6995 134.685 22.0675V32.4995H129.245V22.8035C129.245 21.6088 128.936 20.6808 128.317 20.0195C127.699 19.3582 126.867 19.0275 125.821 19.0275C124.776 19.0275 123.944 19.3582 123.325 20.0195C122.707 20.6808 122.397 21.6088 122.397 22.8035V32.4995H116.925V14.6435H122.397V17.0115C122.952 16.2222 123.699 15.6035 124.637 15.1555C125.576 14.6862 126.632 14.4515 127.805 14.4515ZM145.656 32.7235C144.013 32.7235 142.541 32.4568 141.24 31.9235C139.939 31.3902 138.893 30.6008 138.104 29.5555C137.336 28.5102 136.931 27.2515 136.888 25.7795H142.712C142.797 26.6115 143.085 27.2515 143.576 27.6995C144.067 28.1262 144.707 28.3395 145.496 28.3395C146.307 28.3395 146.947 28.1582 147.416 27.7955C147.885 27.4115 148.12 26.8888 148.12 26.2275C148.12 25.6728 147.928 25.2142 147.544 24.8515C147.181 24.4888 146.723 24.1902 146.168 23.9555C145.635 23.7208 144.867 23.4542 143.864 23.1555C142.413 22.7075 141.229 22.2595 140.312 21.8115C139.395 21.3635 138.605 20.7022 137.944 19.8275C137.283 18.9528 136.952 17.8115 136.952 16.4035C136.952 14.3128 137.709 12.6808 139.224 11.5075C140.739 10.3128 142.712 9.71551 145.144 9.71551C147.619 9.71551 149.613 10.3128 151.128 11.5075C152.643 12.6808 153.453 14.3235 153.56 16.4355H147.64C147.597 15.7102 147.331 15.1448 146.84 14.7395C146.349 14.3128 145.72 14.0995 144.952 14.0995C144.291 14.0995 143.757 14.2808 143.352 14.6435C142.947 14.9848 142.744 15.4862 142.744 16.1475C142.744 16.8728 143.085 17.4382 143.768 17.8435C144.451 18.2488 145.517 18.6862 146.968 19.1555C148.419 19.6462 149.592 20.1155 150.488 20.5635C151.405 21.0115 152.195 21.6622 152.856 22.5155C153.517 23.3688 153.848 24.4675 153.848 25.8115C153.848 27.0915 153.517 28.2542 152.856 29.2995C152.216 30.3448 151.277 31.1768 150.04 31.7955C148.803 32.4142 147.341 32.7235 145.656 32.7235ZM173.087 23.2835C173.087 23.7955 173.055 24.3288 172.991 24.8835H160.607C160.693 25.9928 161.045 26.8462 161.663 27.4435C162.303 28.0195 163.082 28.3075 163.999 28.3075C165.365 28.3075 166.314 27.7315 166.847 26.5795H172.671C172.373 27.7528 171.829 28.8088 171.039 29.7475C170.271 30.6862 169.301 31.4222 168.127 31.9555C166.954 32.4888 165.642 32.7555 164.191 32.7555C162.442 32.7555 160.885 32.3822 159.519 31.6355C158.154 30.8888 157.087 29.8222 156.319 28.4355C155.551 27.0488 155.167 25.4275 155.167 23.5715C155.167 21.7155 155.541 20.0942 156.287 18.7075C157.055 17.3208 158.122 16.2542 159.487 15.5075C160.853 14.7608 162.421 14.3875 164.191 14.3875C165.919 14.3875 167.455 14.7502 168.799 15.4755C170.143 16.2008 171.189 17.2355 171.935 18.5795C172.703 19.9235 173.087 21.4915 173.087 23.2835ZM167.487 21.8435C167.487 20.9048 167.167 20.1582 166.527 19.6035C165.887 19.0488 165.087 18.7715 164.127 18.7715C163.21 18.7715 162.431 19.0382 161.791 19.5715C161.173 20.1048 160.789 20.8622 160.639 21.8435H167.487ZM173.926 23.5395C173.926 21.7048 174.267 20.0942 174.95 18.7075C175.654 17.3208 176.603 16.2542 177.798 15.5075C178.993 14.7608 180.326 14.3875 181.798 14.3875C183.057 14.3875 184.155 14.6435 185.094 15.1555C186.054 15.6675 186.79 16.3395 187.302 17.1715V14.6435H192.774V32.4995H187.302V29.9715C186.769 30.8035 186.022 31.4755 185.062 31.9875C184.123 32.4995 183.025 32.7555 181.766 32.7555C180.315 32.7555 178.993 32.3822 177.798 31.6355C176.603 30.8675 175.654 29.7902 174.95 28.4035C174.267 26.9955 173.926 25.3742 173.926 23.5395ZM187.302 23.5715C187.302 22.2062 186.918 21.1288 186.15 20.3395C185.403 19.5502 184.486 19.1555 183.398 19.1555C182.31 19.1555 181.382 19.5502 180.614 20.3395C179.867 21.1075 179.494 22.1742 179.494 23.5395C179.494 24.9048 179.867 25.9928 180.614 26.8035C181.382 27.5928 182.31 27.9875 183.398 27.9875C184.486 27.9875 185.403 27.5928 186.15 26.8035C186.918 26.0142 187.302 24.9368 187.302 23.5715Z" fill="white"/>
<defs>
<clipPath id="clip0_1_1743">
<rect width="38.3157" height="40.7866" fill="white" transform="translate(0.911987 0.606201)"/>
</clipPath>
</defs>
</svg>
